<svg version="1.2" xmlns="http://www.w3.org/2000/svg" viewBox="0 0 100 100" width="34" height="34">
	<title>icons8-plus-svg</title>
	<style>
		.s0 { fill: #f1bc19 } 
		.s1 { fill: #e6edb7 } 
		.s2 { fill: #88ae45 } 
		.s3 { fill: #fbcd59 } 
		.s4 { fill: #ffffff } 
		.s5 { fill: #fdfcee } 
		.s6 { fill: #472b29 } 
		.s7 { fill: #93bc39 } 
		.s8 { fill: #c0d078 } 
	</style>
	<path id="Layer" class="s0" d="m77 12q-0.4 0-0.7 0.3-0.3 0.3-0.3 0.7 0 0.4 0.3 0.7 0.3 0.3 0.7 0.3 0.4 0 0.7-0.3 0.3-0.3 0.3-0.7 0-0.4-0.3-0.7-0.3-0.3-0.7-0.3z"/>
	<path id="Layer" class="s1" d="m50 13c-9.8 0-19.2 3.9-26.2 10.8-6.9 7-10.8 16.4-10.8 26.2 0 9.8 3.9 19.2 10.8 26.2 7 6.9 16.4 10.8 26.2 10.8 9.8 0 19.2-3.9 26.2-10.8 6.9-7 10.8-16.4 10.8-26.2 0-9.8-3.9-19.2-10.8-26.2-7-6.9-16.4-10.8-26.2-10.8z"/>
	<path id="Layer" class="s0" d="m83 11c-1.1 0-2.1 0.4-2.8 1.2-0.8 0.7-1.2 1.7-1.2 2.8 0 1.1 0.4 2.1 1.2 2.8 0.7 0.8 1.7 1.2 2.8 1.2 1.1 0 2.1-0.4 2.8-1.2 0.8-0.7 1.2-1.7 1.2-2.8 0-1.1-0.4-2.1-1.2-2.8-0.7-0.8-1.7-1.2-2.8-1.2z"/>
	<path id="Layer" class="s2" d="m87 22c-0.5 0-1 0.2-1.4 0.6-0.4 0.4-0.6 0.9-0.6 1.4 0 0.5 0.2 1 0.6 1.4 0.4 0.4 0.9 0.6 1.4 0.6 0.5 0 1-0.2 1.4-0.6 0.4-0.4 0.6-0.9 0.6-1.4 0-0.5-0.2-1-0.6-1.4-0.4-0.4-0.9-0.6-1.4-0.6z"/>
	<path id="Layer" class="s3" d="m81 74c-0.5 0-1 0.2-1.4 0.6-0.4 0.4-0.6 0.9-0.6 1.4 0 0.5 0.2 1 0.6 1.4 0.4 0.4 0.9 0.6 1.4 0.6 0.5 0 1-0.2 1.4-0.6 0.4-0.4 0.6-0.9 0.6-1.4 0-0.5-0.2-1-0.6-1.4-0.4-0.4-0.9-0.6-1.4-0.6zm-66-15c-1.1 0-2.1 0.4-2.8 1.2-0.8 0.7-1.2 1.7-1.2 2.8 0 1.1 0.4 2.1 1.2 2.8 0.7 0.8 1.7 1.2 2.8 1.2 1.1 0 2.1-0.4 2.8-1.2 0.8-0.7 1.2-1.7 1.2-2.8 0-1.1-0.4-2.1-1.2-2.8-0.7-0.8-1.7-1.2-2.8-1.2z"/>
	<path id="Layer" class="s2" d="m25 85c-0.5 0-1 0.2-1.4 0.6-0.4 0.4-0.6 0.9-0.6 1.4 0 0.5 0.2 1 0.6 1.4 0.4 0.4 0.9 0.6 1.4 0.6 0.5 0 1-0.2 1.4-0.6 0.4-0.4 0.6-0.9 0.6-1.4 0-0.5-0.2-1-0.6-1.4-0.4-0.4-0.9-0.6-1.4-0.6z"/>
	<path id="Layer" class="s4" d="m18.5 49c-0.7 0-1.3 0.3-1.8 0.7-0.4 0.5-0.7 1.1-0.7 1.8 0 0.7 0.3 1.3 0.7 1.8 0.5 0.4 1.1 0.7 1.8 0.7 0.7 0 1.3-0.3 1.8-0.7 0.4-0.5 0.7-1.1 0.7-1.8 0-0.7-0.3-1.3-0.7-1.8-0.5-0.4-1.1-0.7-1.8-0.7zm61-17c-0.4 0-0.8 0.2-1.1 0.4-0.2 0.3-0.4 0.7-0.4 1.1 0 0.4 0.2 0.8 0.4 1.1 0.3 0.2 0.7 0.4 1.1 0.4 0.4 0 0.8-0.2 1.1-0.4 0.2-0.3 0.4-0.7 0.4-1.1 0-0.4-0.2-0.8-0.4-1.1-0.3-0.2-0.7-0.4-1.1-0.4z"/>
	<g id="Layer">
		<path id="Layer" class="s5" d="m50 26c-6.4 0-12.4 2.6-16.9 7.1-4.5 4.5-7.1 10.5-7.1 16.9 0 6.4 2.6 12.4 7.1 16.9 4.5 4.5 10.5 7.1 16.9 7.1 6.4 0 12.4-2.6 16.9-7.1 4.5-4.5 7.1-10.5 7.1-16.9 0-6.4-2.6-12.4-7.1-16.9-4.5-4.5-10.5-7.1-16.9-7.1z"/>
		<path id="Layer" fill-rule="evenodd" class="s6" d="m75 50c0 13.8-11.2 25-25 25-13.8 0-25-11.2-25-25 0-13.8 11.2-25 25-25 13.8 0 25 11.2 25 25zm-48.6 0c0 13 10.6 23.6 23.6 23.6 13 0 23.6-10.6 23.6-23.6 0-13-10.6-23.6-23.6-23.6-13 0-23.6 10.6-23.6 23.6z"/>
		<path id="Layer" class="s7" d="m50 30.4c-5.2 0-10.2 2-13.9 5.7-3.7 3.7-5.7 8.7-5.7 13.9 0 5.2 2 10.2 5.7 13.9 3.7 3.7 8.7 5.7 13.9 5.7 5.2 0 10.2-2 13.9-5.7 3.7-3.7 5.7-8.7 5.7-13.9 0-5.2-2-10.2-5.7-13.9-3.7-3.7-8.7-5.7-13.9-5.7z"/>
		<path id="Layer" class="s8" d="m50 33.4c10.3 0 18.8 8 19.5 18.1q0.1-0.7 0.1-1.5c0-10.8-8.8-19.6-19.6-19.6-10.8 0-19.6 8.8-19.6 19.6q0 0.8 0 1.5c0.8-10.1 9.3-18.1 19.6-18.1z"/>
		<path id="Layer" fill-rule="evenodd" class="s6" d="m70 50c0 11-9 20-20 20-11 0-20-9-20-20 0-11 9-20 20-20 11 0 20 9 20 20zm-39.3 0c0 10.6 8.7 19.3 19.3 19.3 10.6-0.1 19.3-8.7 19.3-19.3-0.1-10.6-8.7-19.3-19.3-19.3-10.6 0.1-19.3 8.7-19.3 19.3z"/>
		<path id="Layer" class="s5" d="m42 48.3c-1 0-1.8 0.7-1.8 1.7 0.1 1 0.8 1.8 1.8 1.8h6.3v6.2c0 1 0.7 1.8 1.7 1.8 1 0 1.8-0.8 1.8-1.8v-6.2h6.2c1 0 1.8-0.8 1.8-1.8-0.1-1-0.8-1.7-1.8-1.7h-6.3v-6.3c0-1-0.7-1.7-1.7-1.7-1 0-1.8 0.7-1.8 1.7v6.3z"/>
		<path id="Layer" fill-rule="evenodd" class="s6" d="m52 42c0 0.4 0 3 0 6 3 0 5.6 0 6 0 1.1 0 2 0.9 2 2 0 1.1-0.9 2-2 2-0.4 0-3 0-6 0 0 3 0 5.6 0 6 0 1.1-0.9 2-2 2-1.1 0-2-0.9-2-2 0-0.4 0-3 0-6-3 0-5.6 0-6 0-1.1 0-2-0.9-2-2 0-1.1 0.9-2 2-2 0.4 0 3 0 6 0 0-3 0-5.6 0-6 0-1.1 0.9-2 2-2 1.1 0 2 0.9 2 2zm-3.3 0v6.8h-6.7c-0.7 0-1.3 0.5-1.3 1.2 0.1 0.7 0.6 1.3 1.3 1.3h6.8v6.7c0 0.7 0.5 1.3 1.2 1.3 0.7-0.1 1.3-0.6 1.3-1.3v-6.8h6.7c0.7 0 1.3-0.5 1.3-1.2-0.1-0.7-0.6-1.3-1.3-1.3h-6.8v-6.7c0-0.7-0.5-1.3-1.2-1.3-0.7 0.1-1.3 0.6-1.3 1.3z"/>
	</g>
</svg>